<?xml version="1.0" encoding="utf-8"?>
<!-- Generator: Adobe Illustrator 16.0.3, SVG Export Plug-In . SVG Version: 6.00 Build 0)  -->
<!DOCTYPE svg PUBLIC "-//W3C//DTD SVG 1.1//EN" "http://www.w3.org/Graphics/SVG/1.1/DTD/svg11.dtd">
<svg version="1.1" id="a" xmlns="http://www.w3.org/2000/svg" xmlns:xlink="http://www.w3.org/1999/xlink" x="0px" y="0px"
	 width="300px" height="300px" viewBox="0 0 300 300" enable-background="new 0 0 300 300" xml:space="preserve">
<path fill="#05AFF2" d="M144.134,239.514c-2.711-0.332-5.091,1.66-5.423,4.316c-0.276,2.711,1.66,5.091,4.317,5.423
	c29.773,3.265,47.537,12.673,47.537,19.867c0,8.799-26.508,21.085-69.729,21.085s-69.729-12.286-69.729-21.085
	c0-7.194,17.764-16.603,47.537-19.867c2.712-0.276,4.649-2.712,4.317-5.423c-0.277-2.713-2.712-4.648-5.424-4.316
	c-27.227,2.988-56.281,12.34-56.281,29.606c0,20.032,40.952,30.88,79.524,30.88s79.525-10.791,79.525-30.88
	c0-17.267-29.056-26.618-56.282-29.606H144.134L144.134,239.514z"/>
<path fill="#05AFF2" d="M236.885,68.068c0-6.917-6.143-12.617-18.816-17.432c-2.545-0.94-5.366,0.332-6.309,2.878
	c-0.941,2.545,0.332,5.368,2.822,6.309c10.238,3.874,12.451,7.25,12.451,8.246c0,6.862-37.52,20.2-106.253,20.2
	c-68.733,0-106.198-13.337-106.198-20.2c0-6.862,37.521-20.199,106.253-20.199c20.31,0,44.604,1.716,63.365,4.428
	c2.601,0.387,5.147-1.439,5.534-4.151c0.387-2.656-1.494-5.146-4.15-5.534c-19.203-2.767-43.996-4.538-64.749-4.538
	c-40.122,0-116.048,6.253-116.048,29.994c0,23.741,75.927,29.995,116.048,29.995S236.885,91.81,236.885,68.068L236.885,68.068z"/>
<path fill="#05AFF2" d="M108.052,258.826c0,1.717,0.885,3.32,2.379,4.207c0.277,0.166,4.427,2.601,10.515,2.601
	c3.044,0,6.53-0.608,10.238-2.38c1.716-0.83,2.767-2.545,2.767-4.428v-77.42l91.976-84.616c1.993-1.826,2.103-4.925,0.276-6.917
	c-1.827-1.992-4.926-2.103-6.917-0.276l-93.581,86.053c-0.996,0.94-1.605,2.214-1.605,3.599v76.203
	c-2.545,0.664-4.759,0.442-6.309,0.055v-76.258c0-1.385-0.554-2.713-1.605-3.599L22.33,89.541c-1.993-1.826-5.092-1.715-6.918,0.332
	c-1.826,1.992-1.715,5.091,0.277,6.917l92.363,84.616V258.826L108.052,258.826z"/>
<path fill="#FFFF00" d="M190.232,36.082c0.94,0.94,2.213,1.438,3.485,1.438c1.273,0,2.49-0.498,3.486-1.438
	c1.882-1.937,1.938-4.981,0-6.917l-9.463-9.463c-1.938-1.937-5.036-1.937-6.919,0c-1.881,1.937-1.937,4.98,0,6.917l9.464,9.463
	H190.232z"/>
<path fill="#FFFF00" d="M290.287,62.147h-13.393c-2.711,0-4.869,2.213-4.869,4.925c0,2.712,2.213,4.926,4.869,4.926h13.393
	c2.713,0,4.926-2.214,4.926-4.926C295.213,64.361,293,62.147,290.287,62.147L290.287,62.147z"/>
<path fill="#FFFF00" d="M179.441,71.942c2.711,0,4.925-2.213,4.925-4.925c0-2.711-2.214-4.925-4.925-4.925h-13.394
	c-2.712,0-4.926,2.214-4.926,4.925c0,2.712,2.214,4.925,4.926,4.925H179.441L179.441,71.942z"/>
<path fill="#FFFF00" d="M228.141,110.902c-2.711,0-4.926,2.214-4.926,4.925v13.393c0,2.712,2.215,4.925,4.926,4.925
	s4.926-2.213,4.926-4.925v-13.393C233.066,113.116,230.852,110.902,228.141,110.902z"/>
<path fill="#FFFF00" d="M228.141,23.188c2.711,0,4.926-2.213,4.926-4.925V4.925c0-2.711-2.215-4.925-4.926-4.925
	s-4.926,2.214-4.926,4.925v13.392c0,2.712,2.215,4.926,4.926,4.926V23.188z"/>
<path fill="#FFFF00" d="M262.617,37.521c1.273,0,2.49-0.498,3.486-1.438l9.463-9.463c1.883-1.937,1.883-5.036,0-6.917
	c-1.937-1.937-5.035-1.882-6.916,0l-9.465,9.463c-1.881,1.937-1.881,5.036,0,6.917c0.94,0.94,2.215,1.438,3.486,1.438H262.617z"/>
<path fill="#FFFF00" d="M266.104,98.063c-1.937-1.937-5.035-1.937-6.916,0c-1.938,1.937-1.938,5.036,0,6.917l9.463,9.463
	c0.939,0.941,2.214,1.439,3.486,1.439s2.49-0.498,3.486-1.439c1.938-1.937,1.938-5.036,0-6.917l-9.464-9.463H266.104z"/>
<path fill="#FFFF00" d="M228.195,30.161c-20.365,0-36.912,16.602-36.912,36.912c0,1.661,0.111,3.265,0.332,4.87
	c0.389,2.656,2.879,4.593,5.535,4.206c2.711-0.332,4.593-2.822,4.205-5.534c-0.166-1.162-0.222-2.379-0.222-3.542
	c0-14.941,12.175-27.117,27.117-27.117c14.94,0,27.116,12.175,27.116,27.117c0,13.061-9.299,24.294-22.137,26.674
	c-2.655,0.498-4.428,3.043-3.93,5.7c0.443,2.379,2.49,4.04,4.814,4.04c0.277,0,0.609,0,0.886-0.11
	c17.487-3.21,30.16-18.484,30.16-36.304c0-20.365-16.546-36.912-36.911-36.912H228.195z"/>
<path fill="#05DBF2" d="M196.1,102.158c0-2.711-2.158-5.036-4.871-5.036c-2.711,0-4.869,1.993-4.869,4.704
	c-1.938,4.15-25.457,11.622-65.467,11.622c-40.011,0-63.586-7.416-65.413-11.29c0-2.711-2.213-4.925-4.925-4.925
	c-2.711,0-4.925,2.214-4.925,4.925c0,16.658,47.261,21.085,75.208,21.085c27.947,0,75.208-4.427,75.208-21.085H196.1z"/>
<path fill="#05DBF2" d="M80.437,73.713c-2.711,0.387-4.593,2.822-4.206,5.534c0.332,2.49,2.435,4.261,4.87,4.261
	c0.222,0,0.443,0,0.664,0c23.409-3.155,54.234-3.265,78.25-0.332c2.602,0.332,5.146-1.55,5.479-4.261
	c0.332-2.657-1.55-5.147-4.261-5.479c-24.849-3.099-56.559-2.933-80.797,0.332V73.713z"/>
<path fill="#05DBF2" d="M78.833,125.069c-1.882,1.937-1.771,5.091,0.221,6.917l24.792,23.409c0.941,0.887,2.158,1.328,3.375,1.328
	c1.329,0,2.601-0.498,3.597-1.55c1.827-1.991,1.771-5.091-0.221-6.917l-24.792-23.409c-1.992-1.826-5.091-1.771-6.917,0.222H78.833
	L78.833,125.069z"/>
</svg>
