<?xml version="1.0" encoding="utf-8"?>
<!-- Generator: Adobe Illustrator 16.0.3, SVG Export Plug-In . SVG Version: 6.00 Build 0)  -->
<!DOCTYPE svg PUBLIC "-//W3C//DTD SVG 1.1//EN" "http://www.w3.org/Graphics/SVG/1.1/DTD/svg11.dtd">
<svg version="1.1" id="a" xmlns="http://www.w3.org/2000/svg" xmlns:xlink="http://www.w3.org/1999/xlink" x="0px" y="0px"
	 width="300px" height="300px" viewBox="0 0 300 300" enable-background="new 0 0 300 300" xml:space="preserve">
<path fill="#05AFF2" d="M144.134,239.514c-2.711-0.332-5.091,1.66-5.423,4.316c-0.276,2.711,1.66,5.091,4.317,5.423
	c29.773,3.265,47.537,12.673,47.537,19.867c0,8.799-26.508,21.085-69.729,21.085s-69.729-12.286-69.729-21.085
	c0-7.194,17.764-16.603,47.537-19.867c2.712-0.276,4.649-2.712,4.317-5.423c-0.277-2.713-2.712-4.648-5.424-4.316
	c-27.227,2.988-56.281,12.34-56.281,29.606c0,20.032,40.952,30.88,79.524,30.88s79.525-10.791,79.525-30.88
	c0-17.267-29.056-26.618-56.282-29.606H144.134L144.134,239.514z"/>
<path fill="#05AFF2" d="M236.885,68.068c0-6.917-6.143-12.617-18.816-17.432c-2.545-0.94-5.365,0.332-6.309,2.878
	c-0.941,2.545,0.332,5.368,2.822,6.309c10.238,3.874,12.451,7.25,12.451,8.246c0,6.862-37.52,20.2-106.253,20.2
	c-68.733,0-106.198-13.337-106.198-20.2c0-6.862,37.521-20.199,106.253-20.199c20.31,0,44.604,1.716,63.365,4.428
	c2.601,0.387,5.147-1.439,5.534-4.151c0.387-2.656-1.494-5.146-4.15-5.534c-19.203-2.767-43.996-4.538-64.749-4.538
	c-40.122,0-116.048,6.253-116.048,29.994c0,23.741,75.927,29.995,116.048,29.995S236.885,91.81,236.885,68.068L236.885,68.068z"/>
<path fill="#05AFF2" d="M108.052,258.826c0,1.717,0.885,3.32,2.379,4.207c0.277,0.166,4.427,2.601,10.515,2.601
	c3.044,0,6.53-0.608,10.238-2.38c1.716-0.83,2.767-2.545,2.767-4.428v-77.42l91.976-84.616c1.993-1.826,2.103-4.925,0.276-6.917
	c-1.827-1.992-4.926-2.103-6.917-0.276l-93.581,86.053c-0.996,0.939-1.605,2.214-1.605,3.599v76.203
	c-2.545,0.664-4.759,0.442-6.309,0v-76.261c0-1.383-0.554-2.711-1.605-3.596L22.33,89.541c-1.993-1.826-5.092-1.715-6.918,0.332
	c-1.826,1.992-1.715,5.091,0.277,6.917l92.363,84.616V258.826L108.052,258.826z"/>
</svg>
