<?xml version="1.0" encoding="utf-8"?>
<!-- Generator: Adobe Illustrator 16.0.3, SVG Export Plug-In . SVG Version: 6.00 Build 0)  -->
<!DOCTYPE svg PUBLIC "-//W3C//DTD SVG 1.1//EN" "http://www.w3.org/Graphics/SVG/1.1/DTD/svg11.dtd">
<svg version="1.1" id="a" xmlns="http://www.w3.org/2000/svg" xmlns:xlink="http://www.w3.org/1999/xlink" x="0px" y="0px"
	 width="300px" height="300px" viewBox="0 0 300 300" enable-background="new 0 0 300 300" xml:space="preserve">
<path fill="#05DBF2" d="M196.1,102.158c0-2.711-2.158-5.036-4.871-5.036c-2.711,0-4.869,1.993-4.869,4.704
	c-1.938,4.15-25.457,11.622-65.466,11.622c-40.011,0-63.586-7.416-65.413-11.29c0-2.711-2.213-4.925-4.925-4.925
	c-2.711,0-4.925,2.214-4.925,4.925c0,16.658,47.261,21.085,75.208,21.085c27.947,0,75.208-4.427,75.208-21.085H196.1L196.1,102.158z
	"/>
<path fill="#05DBF2" d="M80.437,73.713c-2.711,0.387-4.593,2.822-4.206,5.534c0.332,2.49,2.435,4.261,4.87,4.261h0.664
	c23.409-3.155,54.234-3.265,78.25-0.332c2.602,0.332,5.146-1.55,5.479-4.261c0.332-2.657-1.551-5.147-4.262-5.479
	c-24.849-3.099-56.559-2.933-80.796,0.332l0,0L80.437,73.713L80.437,73.713z"/>
<path fill="#05DBF2" d="M78.833,125.069c-1.882,1.937-1.771,5.091,0.221,6.917l24.792,23.409c0.941,0.888,2.158,1.328,3.375,1.328
	c1.329,0,2.601-0.498,3.597-1.55c1.827-1.991,1.771-5.091-0.221-6.917l-24.792-23.409c-1.992-1.826-5.091-1.771-6.917,0.222l0,0
	H78.833L78.833,125.069z"/>
</svg>
