<?xml version="1.0" encoding="utf-8"?>
<!-- Generator: Adobe Illustrator 16.0.3, SVG Export Plug-In . SVG Version: 6.00 Build 0)  -->
<!DOCTYPE svg PUBLIC "-//W3C//DTD SVG 1.1//EN" "http://www.w3.org/Graphics/SVG/1.1/DTD/svg11.dtd">
<svg version="1.1" id="a" xmlns="http://www.w3.org/2000/svg" xmlns:xlink="http://www.w3.org/1999/xlink" x="0px" y="0px"
	 width="300px" height="300px" viewBox="0 0 300 300" enable-background="new 0 0 300 300" xml:space="preserve">
<path fill="#FFFF00" d="M190.232,36.082c0.939,0.94,2.213,1.438,3.484,1.438c1.273,0,2.49-0.498,3.486-1.438
	c1.882-1.937,1.938-4.981,0-6.917l-9.463-9.463c-1.938-1.937-5.036-1.937-6.92,0c-1.881,1.937-1.937,4.98,0,6.917l9.465,9.463
	H190.232L190.232,36.082z"/>
<path fill="#FFFF00" d="M290.287,62.147h-13.393c-2.711,0-4.869,2.213-4.869,4.925c0,2.712,2.213,4.926,4.869,4.926h13.393
	c2.713,0,4.926-2.214,4.926-4.926C295.213,64.361,293,62.147,290.287,62.147L290.287,62.147z"/>
<path fill="#FFFF00" d="M179.441,71.942c2.711,0,4.925-2.213,4.925-4.925c0-2.711-2.214-4.925-4.925-4.925h-13.395
	c-2.712,0-4.926,2.214-4.926,4.925c0,2.712,2.214,4.925,4.926,4.925H179.441L179.441,71.942z"/>
<path fill="#FFFF00" d="M228.141,110.902c-2.711,0-4.926,2.214-4.926,4.925v13.393c0,2.712,2.215,4.925,4.926,4.925
	s4.926-2.213,4.926-4.925v-13.393C233.066,113.116,230.852,110.902,228.141,110.902z"/>
<path fill="#FFFF00" d="M228.141,23.188c2.711,0,4.926-2.213,4.926-4.925V4.925c0-2.711-2.215-4.925-4.926-4.925
	s-4.926,2.214-4.926,4.925v13.392c0,2.712,2.215,4.926,4.926,4.926l0,0V23.188z"/>
<path fill="#FFFF00" d="M262.617,37.521c1.273,0,2.49-0.498,3.486-1.438l9.463-9.463c1.883-1.937,1.883-5.036,0-6.917
	c-1.938-1.937-5.035-1.882-6.916,0l-9.465,9.463c-1.881,1.937-1.881,5.036,0,6.917c0.939,0.94,2.215,1.438,3.485,1.438H262.617
	L262.617,37.521z"/>
<path fill="#FFFF00" d="M266.104,98.063c-1.937-1.937-5.035-1.937-6.916,0c-1.938,1.937-1.938,5.036,0,6.917l9.463,9.463
	c0.939,0.941,2.215,1.439,3.486,1.439c1.272,0,2.49-0.498,3.486-1.439c1.938-1.937,1.938-5.036,0-6.917l-9.464-9.463H266.104
	L266.104,98.063z"/>
<path fill="#FFFF00" d="M228.195,30.161c-20.365,0-36.912,16.602-36.912,36.912c0,1.661,0.111,3.265,0.332,4.87
	c0.389,2.656,2.879,4.593,5.535,4.206c2.711-0.332,4.593-2.822,4.205-5.534c-0.166-1.162-0.223-2.379-0.223-3.542
	c0-14.941,12.176-27.117,27.117-27.117c14.939,0,27.116,12.175,27.116,27.117c0,13.061-9.3,24.294-22.138,26.674
	c-2.654,0.498-4.428,3.043-3.93,5.7c0.443,2.379,2.49,4.04,4.814,4.04c0.277,0,0.609,0,0.886-0.11
	c17.487-3.21,30.16-18.484,30.16-36.304c0-20.365-16.546-36.912-36.911-36.912l0,0H228.195z"/>
</svg>
